HIERARCHY
ROOT RootJoint
{
    OFFSET   0.000000   0.000000   0.000000
    CHANNELS 6 Xposition Yposition Zposition Xrotation Yrotation Zrotation
    JOINT pelvis_lowerback
    {
        OFFSET   0.000000   0.093605   0.000000
        CHANNELS 3 Xrotation Yrotation Zrotation
        JOINT lowerback_torso
        {
            OFFSET   0.000000   0.100000   0.000000
            CHANNELS 3 Xrotation Yrotation Zrotation
            JOINT torso_head
            {
                OFFSET   0.000000   0.282350   0.000000
                CHANNELS 3 Xrotation Yrotation Zrotation
                End Site
                {
                    OFFSET   0.000000   0.192650   0.000000
                }
            }
            JOINT rTorso_Clavicle
            {
                OFFSET  -0.001000   0.157500   0.000000
                CHANNELS 3 Xrotation Yrotation Zrotation
                JOINT rShoulder
                {
                    OFFSET  -0.117647   0.000000   0.000000
                    CHANNELS 3 Xrotation Yrotation Zrotation
                    JOINT rElbow
                    {
                        OFFSET  -0.245000   0.000000   0.000000
                        CHANNELS 3 Xrotation Yrotation Zrotation
                        JOINT rWrist
                        {
                            OFFSET  -0.240000   0.000000   0.000000
                            CHANNELS 3 Xrotation Yrotation Zrotation
                            End Site
                            {
                                OFFSET  -0.116353  -0.002500   0.000000
                            }
                        }
                    }
                }
            }
            JOINT lTorso_Clavicle
            {
                OFFSET   0.001000   0.157500   0.000000
                CHANNELS 3 Xrotation Yrotation Zrotation
                JOINT lShoulder
                {
                    OFFSET   0.117647   0.000000   0.000000
                    CHANNELS 3 Xrotation Yrotation Zrotation
                    JOINT lElbow
                    {
                        OFFSET   0.245000   0.000000   0.000000
                        CHANNELS 3 Xrotation Yrotation Zrotation
                        JOINT lWrist
                        {
                            OFFSET   0.240000   0.000000   0.000000
                            CHANNELS 3 Xrotation Yrotation Zrotation
                            End Site
                            {
                                OFFSET   0.116353  -0.002500   0.000000
                            }
                        }
                    }
                }
            }
        }
    }
    JOINT rHip
    {
        OFFSET  -0.100000  -0.051395   0.000000
        CHANNELS 3 Xrotation Yrotation Zrotation
        JOINT rKnee
        {
            OFFSET   0.000000  -0.410000   0.000000
            CHANNELS 3 Xrotation Yrotation Zrotation
            JOINT rAnkle
            {
                OFFSET   0.000000  -0.390000   0.000000
                CHANNELS 3 Xrotation Yrotation Zrotation
                JOINT rToeJoint
                {
                    OFFSET   0.000000  -0.050000   0.130000
                    CHANNELS 3 Xrotation Yrotation Zrotation
                    End Site
                    {
                        OFFSET  -0.010000   0.002000   0.060000
                    }
                }
            }
        }
    }
    JOINT lHip
    {
        OFFSET   0.100000  -0.051395   0.000000
        CHANNELS 3 Xrotation Yrotation Zrotation
        JOINT lKnee
        {
            OFFSET   0.000000  -0.410000   0.000000
            CHANNELS 3 Xrotation Yrotation Zrotation
            JOINT lAnkle
            {
                OFFSET   0.000000  -0.390000   0.000000
                CHANNELS 3 Xrotation Yrotation Zrotation
                JOINT lToeJoint
                {
                    OFFSET   0.000000  -0.050000   0.130000
                    CHANNELS 3 Xrotation Yrotation Zrotation
                    End Site
                    {
                        OFFSET   0.010000   0.002000   0.060000
                    }
                }
            }
        }
    }
}
MOTION
Frames: 12
Frame Time:   0.008333
 -2.706320   0.611343   5.007510 -133.484252  41.250768 142.802490  47.607863   2.778623   0.311769  -0.292878  -0.009446   3.380377  -2.487250   2.010873  -3.843593  -0.592246  15.193814   5.270151   1.434184  14.740913  34.835503   0.001227  55.298913  -0.001859  11.144911   1.632850 -14.738915  -2.491041 -19.808245  -2.635676   7.394804 -19.752403 -31.156355   0.006481 -61.905138   0.010802  10.707064  -6.300315  14.937572 -33.189898  -5.718304 -16.577265  98.123895  -0.000221   0.000125 -42.879281 -10.009978  -2.963798   0.405219  -0.000012  -0.000048 -30.108817   2.959338  14.417513 103.749195  -0.003165   0.001068 -48.168511   1.722629   5.702365  -3.818459   0.000541   0.000280
 -2.707708   0.610810   5.007761 -133.339352  41.274096 142.623359  47.450278   2.756893   0.327586  -0.372955  -0.049863   3.335198  -2.536428   2.015930  -3.797626  -0.552933  15.218896   5.401523   1.478337  14.902205  34.924456   0.001141  55.189306  -0.001747  11.270774   1.611318 -14.956067  -2.507876 -19.790590  -2.888844   7.340276 -19.757284 -31.424242   0.005762 -61.446515   0.010649  10.758994  -6.338823  15.237988 -33.276379  -5.671487 -16.534310  98.142525  -0.000183   0.000092 -42.841669  -9.942011  -2.927214   0.395229  -0.000005  -0.000038 -29.593505   2.914771  14.559933 103.476216  -0.002136   0.000617 -48.477312   1.733753   5.797947  -3.774249   0.000329   0.000203
 -2.709241   0.610140   5.007992 -133.235779  41.289717 142.447312  47.284743   2.737965   0.383137  -0.446083  -0.085482   3.301487  -2.587373   2.019598  -3.750190  -0.512801  15.246063   5.522889   1.520950  15.060481  35.014941   0.001025  55.092765  -0.001609  11.398594   1.616180 -15.144761  -2.498666 -19.769547  -3.156078   7.302159 -19.762618 -31.705569   0.004612 -61.010527   0.010029  10.794562  -6.329538  15.498867 -33.394088  -5.638462 -16.473245  98.167209  -0.000150   0.000065 -42.807778  -9.879511  -2.890294   0.383648   0.000000  -0.000032 -29.089634   2.871545  14.710500 102.994871  -0.001121   0.000119 -48.766310   1.743329   5.886905  -3.702137   0.000115   0.000150
 -2.710901   0.609279   5.008190 -133.152647  41.283646 142.271813  47.129617   2.720211   0.458445  -0.508138  -0.117801   3.281931  -2.636109   2.022745  -3.701839  -0.474602  15.272096   5.636250   1.560824  15.209980  35.101252   0.000906  55.004310  -0.001463  11.524178   1.633583 -15.317895  -2.476534 -19.748464  -3.418982   7.274161 -19.769646 -31.982922   0.003424 -60.602843   0.009193  10.825835  -6.313053  15.708940 -33.527303  -5.613494 -16.409757  98.209858  -0.000120   0.000038 -42.774367  -9.822316  -2.853546   0.372095   0.000004  -0.000028 -28.607149   2.831261  14.858390 102.463843  -0.000396  -0.000254 -49.036169   1.751674   5.969832  -3.623732  -0.000043   0.000122
 -2.712485   0.608643   5.008176 -132.800892  41.185158 141.943425  47.129804   2.717920   0.491618  -0.477836  -0.136295   3.251207  -2.676020   2.025298  -3.657095  -0.442132  15.310062   5.758200   1.595008  15.354141  35.186316   0.000772  54.918463  -0.001311  11.641679   1.638785 -15.476368  -2.449942 -19.735169  -3.682203   7.251675 -19.776214 -32.248684   0.002280 -60.215718   0.008283  10.849060  -6.273296  15.881061 -33.398308  -5.555177 -16.373754  98.216627  -0.000097   0.000026 -42.743598  -9.757626  -2.838710   0.360093   0.000002  -0.000022 -28.528208   2.940541  14.991200 102.656286  -0.000112  -0.000251 -49.272606   1.794226   5.994451  -3.443693   0.000083   0.000319
 -2.714106   0.608166   5.008124 -132.412305  41.108547 141.591507  47.126311   2.729584   0.503979  -0.430314  -0.140917   3.213074  -2.711242   2.027889  -3.616588  -0.405210  15.348510   5.891614   1.629908  15.492106  35.278513   0.000644  54.837884  -0.001177  11.755374   1.646439 -15.604785  -2.410490 -19.715076  -3.945571   7.239357 -19.779973 -32.510184   0.001279 -59.851507   0.007418  10.868781  -6.226395  16.014288 -33.250987  -5.482804 -16.336972  98.196475  -0.000072   0.000037 -42.715489  -9.694621  -2.829809   0.351429   0.000001  -0.000015 -28.397856   3.050083  15.067334 102.793471  -0.000012  -0.000309 -49.450361   1.818332   6.036357  -3.381039   0.000106   0.000275
 -2.715782   0.607784   5.008077 -132.021983  41.055641 141.224240  47.112710   2.752034   0.511797  -0.383585  -0.134086   3.174129  -2.744734   2.030601  -3.579222  -0.366410  15.386732   6.024566   1.664467  15.623963  35.372812   0.000539  54.763637  -0.001062  11.866116   1.661191 -15.707333  -2.362643 -19.688755  -4.198042   7.234788 -19.780704 -32.762867   0.000465 -59.510497   0.006590  10.886129  -6.178361  16.119500 -33.115245  -5.417355 -16.293405  98.155282  -0.000040   0.000069 -42.691732  -9.635888  -2.821751   0.343791   0.000001  -0.000008 -28.258865   3.146260  15.118302 102.900829   0.000013  -0.000368 -49.616326   1.838544   6.078243  -3.321917   0.000126   0.000208
 -2.717439   0.607673   5.008189 -131.642029  41.085857 140.926370  47.082946   2.777200   0.473768  -0.367277  -0.136780   3.057555  -2.837807   1.956871  -3.504807  -0.374948  15.430022   6.211906   1.706896  15.799674  35.483046   0.000432  54.734858  -0.000892  11.945815   1.604166 -15.791498  -2.317624 -19.637329  -4.442764   7.250390 -19.772305 -33.125780  -0.001115 -58.958343   0.006448  10.960261  -6.230399  16.372248 -33.046997  -5.286012 -16.282038  98.077264   0.000017   0.000135 -42.547440  -9.594173  -2.781536   0.354715  -0.000002  -0.000015 -28.136907   3.337492  15.145537 102.929576   0.000016  -0.000326 -49.802764   1.888097   6.143185  -3.208870   0.000154   0.000180
 -2.719040   0.607775   5.008509 -131.297560  41.124348 140.670439  47.050259   2.807993   0.428361  -0.353261  -0.129118   2.929619  -2.933767   1.883852  -3.434419  -0.390259  15.482628   6.394656   1.738666  15.976696  35.593760   0.000338  54.716147  -0.000730  12.028837   1.579564 -15.873494  -2.249060 -19.580779  -4.693584   7.282319 -19.755746 -33.486095  -0.002648 -58.425858   0.006197  11.005955  -6.194764  16.571044 -32.991515  -5.174803 -16.278867  97.969893   0.000094   0.000206 -42.414452  -9.557472  -2.741229   0.374530  -0.000010  -0.000030 -28.025318   3.528624  15.168783 102.906920   0.000008  -0.000240 -49.982654   1.935433   6.202143  -3.106074   0.000164   0.000168
 -2.720579   0.608036   5.009054 -130.999898  41.156120 140.460137  47.015998   2.845381   0.379472  -0.338419  -0.111715   2.801229  -3.025023   1.815174  -3.368330  -0.409214  15.538292   6.565845   1.763936  16.148021  35.698464   0.000259  54.702326  -0.000586  12.113789   1.576740 -15.954267  -2.170201 -19.522432  -4.938323   7.321618 -19.737993 -33.834270  -0.003849 -57.925205   0.005951  11.041157  -6.133774  16.722019 -32.931736  -5.068483 -16.279106  97.841122   0.000149   0.000262 -42.293577  -9.520918  -2.706962   0.392086  -0.000014  -0.000036 -27.932301   3.701790  15.189673 102.846219  -0.000008  -0.000148 -50.155701   1.979056   6.257834  -3.011865   0.000158   0.000170
 -2.722052   0.608419   5.009831 -130.755131  41.175378 140.298139  46.980606   2.888019   0.329251  -0.323903  -0.087083   2.675726  -3.110364   1.750976  -3.306398  -0.430432  15.594372   6.724276   1.784484  16.311498  35.795701   0.000195  54.691556  -0.000464  12.198572   1.586132 -16.034008  -2.087960 -19.463753  -5.171325   7.363996 -19.719848 -34.165343  -0.004656 -57.456552   0.005765  11.072129  -6.067549  16.843213 -32.859337  -4.954644 -16.284726  97.697622   0.000149   0.000298 -42.183749  -9.483453  -2.680173   0.407443  -0.000013  -0.000033 -27.864260   3.850425  15.211361 102.756525  -0.000034  -0.000076 -50.322337   2.018725   6.311374  -2.925555   0.000140   0.000185
 -2.723456   0.608901   5.010835 -130.562185  41.184047 140.183534  46.943861   2.935499   0.276675  -0.311081  -0.056376   2.553175  -3.189857   1.691098  -3.248731  -0.453212  15.649843   6.870382   1.801232  16.466592  35.885394   0.000143  54.682948  -0.000362  12.282103   1.602765 -16.112728  -2.005805 -19.405080  -5.390221   7.407344 -19.701053 -34.477139  -0.005108 -57.018290   0.005644  11.100493  -6.000758  16.947078 -32.768523  -4.836740 -16.297578  97.553978   0.000102   0.000310 -42.080167  -9.446306  -2.658494   0.420244  -0.000009  -0.000027 -27.824018   3.976042  15.236354 102.643022  -0.000069  -0.000036 -50.482980   2.054910   6.362634  -2.846536   0.000114   0.000209
